<svg width="180" height="180" viewBox="0 0 180 180" xmlns="http://www.w3.org/2000/svg">
  <!-- Apple touch icon with rounded corners -->
  <defs>
    <linearGradient id="icon-gradient" x1="0%" y1="0%" x2="100%" y2="100%">
      <stop offset="0%" style="stop-color:#0A2540;stop-opacity:1" />
      <stop offset="100%" style="stop-color:#1e293b;stop-opacity:1" />
    </linearGradient>
  </defs>
  
  <!-- Background with iOS-style rounded corners -->
  <rect width="180" height="180" fill="url(#icon-gradient)" rx="32"/>
  
  <!-- SuburbMates grid pattern scaled for iOS -->
  <g transform="translate(45, 45)">
    <!-- 3x3 suburb grid representing Melbourne -->
    <rect x="0" y="0" width="20" height="20" fill="#B76E00" rx="3" opacity="0.9"/>
    <rect x="25" y="0" width="20" height="20" fill="#B76E00" rx="3"/>
    <rect x="50" y="0" width="20" height="20" fill="#B76E00" rx="3" opacity="0.8"/>
    <rect x="75" y="0" width="20" height="20" fill="#B76E00" rx="3" opacity="0.7"/>
    
    <rect x="0" y="25" width="20" height="20" fill="#B76E00" rx="3"/>
    <rect x="25" y="25" width="20" height="20" fill="white" rx="3"/>
    <rect x="50" y="25" width="20" height="20" fill="#B76E00" rx="3"/>
    <rect x="75" y="25" width="20" height="20" fill="#B76E00" rx="3" opacity="0.9"/>
    
    <rect x="0" y="50" width="20" height="20" fill="#B76E00" rx="3" opacity="0.8"/>
    <rect x="25" y="50" width="20" height="20" fill="#B76E00" rx="3"/>
    <rect x="50" y="50" width="20" height="20" fill="#B76E00" rx="3" opacity="0.8"/>
    <rect x="75" y="50" width="20" height="20" fill="#B76E00" rx="3" opacity="0.7"/>
    
    <rect x="0" y="75" width="20" height="20" fill="#B76E00" rx="3" opacity="0.6"/>
    <rect x="25" y="75" width="20" height="20" fill="#B76E00" rx="3" opacity="0.8"/>
    <rect x="50" y="75" width="20" height="20" fill="#B76E00" rx="3" opacity="0.6"/>
    <rect x="75" y="75" width="20" height="20" fill="#B76E00" rx="3" opacity="0.5"/>
  </g>
</svg>